<svg xmlns="http://www.w3.org/2000/svg" version="1.1" xmlns:xlink="http://www.w3.org/1999/xlink" xmlns:svgjs="http://svgjs.dev/svgjs" width="1000" height="1000" viewBox="0 0 1000 1000"><rect width="1000" height="1000" fill="#ffffff"></rect><g transform="matrix(0.7,0,0,0.7,149.57575757575756,282.1265587044535)"><svg viewBox="0 0 396 247" data-background-color="#ff0000" preserveAspectRatio="xMidYMid meet" height="623" width="1000" xmlns="http://www.w3.org/2000/svg" xmlns:xlink="http://www.w3.org/1999/xlink"><g id="tight-bounds" transform="matrix(1,0,0,1,0.2400000000000091,-0.09999999999999432)"><svg viewBox="0 0 395.52 247.2" height="247.2" width="395.52"><g><svg></svg></g><g><svg viewBox="0 0 395.52 247.2" height="247.2" width="395.52"><g transform="matrix(1,0,0,1,152.03824114285715,47.215199999999996)"><svg viewBox="0 0 91.44351771428572 152.7696" height="152.7696" width="91.44351771428572"><g><svg viewBox="0 0 91.44351771428572 152.7696" height="152.7696" width="91.44351771428572"><g><svg viewBox="0 0 91.44351771428572 152.7696" height="152.7696" width="91.44351771428572"><g><svg viewBox="0 0 91.44351771428572 152.7696" height="152.7696" width="91.44351771428572"><g><svg viewBox="0 0 91.44351771428572 152.7696" height="152.7696" width="91.44351771428572"><g><svg viewBox="0 0 91.44351771428572 152.7696" height="152.7696" width="91.44351771428572"><g transform="matrix(1,0,0,1,0,0)"><svg width="91.44351771428572" viewBox="2.25 -35 20.950000762939453 35" height="152.7696" data-palette-color="#ffffff"><path d="M12-35L21.15-35 21.15-30.6 12.3-30.6Q7.25-30.6 7.25-26.5L7.25-26.5Q7.25-24.3 9.47-22.78 11.7-21.25 15.5-19.85L15.5-19.85Q17.2-19.2 18.4-18.53 19.6-17.85 20.8-16.75 22-15.65 22.6-13.93 23.2-12.2 23.2-9.95L23.2-9.95Q23.2-7.45 22.15-5.48 21.1-3.5 19.45-2.38 17.8-1.25 16.07-0.68 14.35-0.1 12.7-0.05L12.7-0.05Q12 0 10.7 0L10.7 0 2.9 0 2.9-4.4 10.55-4.4Q13.95-4.4 16.1-5.83 18.25-7.25 18.25-10L18.25-10Q18.25-11.35 17.65-12.38 17.05-13.4 15.93-14.15 14.8-14.9 13.63-15.45 12.45-16 10.8-16.6L10.8-16.6Q10.35-16.75 10.1-16.85L10.1-16.85Q2.25-19.85 2.25-26.65L2.25-26.65Q2.25-30.85 4.95-32.93 7.65-35 12-35L12-35Z" opacity="1" transform="matrix(1,0,0,1,0,0)" fill="#000000" class="undefined-text-0" data-fill-palette-color="primary" id="text-0"></path></svg></g></svg></g></svg></g></svg></g></svg></g></svg></g></svg></g><path d="M61.18 41.215L61.18 0 308.38 0 308.38 247.2 61.18 247.2 61.18 205.985 74.957 205.985 74.957 233.423 294.604 233.423 294.604 13.777 74.957 13.777 74.957 41.215Z" fill="#000000" stroke="transparent" data-fill-palette-color="primary"></path></svg></g><defs></defs></svg><rect width="395.52" height="247.2" fill="none" stroke="none" visibility="hidden"></rect></g></svg></g></svg>